<?xml version="1.0" standalone="no"?>
<!DOCTYPE svg PUBLIC "-//W3C//DTD SVG 20010904//EN"
 "http://www.w3.org/TR/2001/REC-SVG-20010904/DTD/svg10.dtd">
<svg version="1.0" xmlns="http://www.w3.org/2000/svg"
 width="1000.000000pt" height="1000.000000pt" viewBox="0 0 1000.000000 1000.000000"
 preserveAspectRatio="xMidYMid meet">
<metadata>
Created by potrace 1.11, written by Peter Selinger 2001-2013
</metadata>
<g transform="translate(0.000000,1000.000000) scale(0.100000,-0.100000)"
fill="#000000" stroke="none">
<path d="M4760 8893 c0 -5 6 -17 14 -28 69 -100 200 -377 284 -605 52 -140
115 -374 127 -470 4 -30 12 -64 18 -75 6 -11 9 -21 8 -23 -1 -1 1 -24 4 -50 3
-26 8 -60 10 -77 2 -16 9 -64 15 -105 17 -115 20 -141 26 -195 30 -262 -28
-441 -169 -525 -30 -17 -47 -21 -77 -16 -88 14 -149 66 -238 204 -35 54 -47
87 -58 162 -1 8 -5 35 -8 60 -24 157 10 372 76 494 27 49 18 47 -89 -25 -152
-102 -330 -260 -436 -387 -120 -142 -316 -473 -417 -702 -38 -88 -40 -88 -69
-23 -20 48 -25 74 -25 148 0 50 3 105 6 123 4 17 5 32 3 32 -8 0 -74 -102
-107 -165 -45 -87 -83 -197 -108 -317 -21 -101 -26 -374 -9 -479 5 -30 11 -77
14 -105 2 -28 6 -64 9 -80 5 -31 21 -153 32 -249 11 -94 12 -250 2 -313 -14
-93 -55 -225 -95 -308 -40 -82 -95 -134 -178 -169 -125 -52 -190 -6 -268 190
-33 83 -86 263 -92 310 -2 11 -10 49 -18 85 -8 36 -18 83 -21 105 -4 22 -8 47
-11 55 -2 8 -7 35 -10 60 -3 25 -7 54 -9 65 -3 11 -5 27 -6 35 -3 35 -42 -121
-65 -260 -26 -154 -26 -620 -1 -746 2 -11 7 -45 10 -75 3 -30 8 -65 10 -79 6
-31 16 -95 22 -135 2 -16 6 -37 8 -45 1 -8 7 -37 11 -65 5 -27 10 -52 10 -55
2 -8 16 -73 19 -90 2 -8 6 -33 11 -55 14 -72 22 -119 49 -290 8 -49 17 -106
20 -125 3 -19 8 -46 11 -60 2 -14 6 -41 9 -60 2 -19 7 -46 10 -60 3 -14 8 -43
11 -64 3 -21 8 -48 10 -60 3 -12 7 -37 9 -56 2 -19 7 -46 10 -60 3 -14 7 -43
10 -65 3 -22 8 -51 11 -65 3 -14 7 -43 10 -65 3 -22 7 -51 10 -65 2 -14 7 -38
9 -55 24 -150 29 -167 66 -213 105 -133 322 -254 500 -278 151 -21 324 -6 370
32 15 12 25 10 170 -30 114 -31 180 -46 237 -52 158 -16 240 -7 423 51 110 35
145 43 165 35 14 -5 25 -8 25 -5 0 6 97 -23 141 -42 33 -14 37 -20 42 -62 14
-118 85 -269 165 -350 84 -86 123 -98 362 -106 224 -8 351 -14 359 -19 4 -3
23 -8 42 -11 19 -3 67 -17 106 -30 40 -13 101 -29 135 -36 35 -6 74 -15 88
-19 14 -4 86 -7 160 -6 116 2 142 5 185 25 161 72 235 178 260 374 6 53 120
278 195 387 5 8 46 67 90 130 44 62 80 118 80 124 0 5 7 17 15 26 27 30 64
201 60 277 -3 66 -30 155 -65 218 -9 17 -45 80 -79 141 -62 111 -63 116 -47
184 24 103 31 196 31 415 0 180 -7 338 -20 435 -2 19 -7 55 -10 80 -8 68 -31
209 -50 305 -26 130 -41 198 -72 320 -19 77 -36 145 -37 150 -6 27 -28 105
-41 145 -86 271 -115 350 -131 350 -3 0 -2 -17 1 -37 14 -79 28 -242 28 -333
0 -150 -27 -240 -88 -286 -41 -31 -47 -30 -90 8 -43 37 -65 78 -94 173 -27 88
-37 164 -46 381 -18 441 -28 513 -115 829 -17 61 -33 120 -35 132 -8 34 -91
263 -119 328 -47 106 -128 259 -156 295 l-19 25 6 -105 c7 -106 7 -224 3 -425
-2 -101 -10 -117 -24 -46 -16 84 -31 119 -187 436 -198 400 -314 608 -478 850
-170 252 -313 450 -405 560 -71 85 -231 242 -301 296 -72 55 -155 104 -155 92z"/>
</g>
</svg>
